<?xml version="1.0" encoding="UTF-8" standalone="no"?>
<svg
   height="15"
   viewBox="0 -960 880 600"
   width="22"
   fill="#000000"
   version="1.1"
   id="svg1"
   sodipodi:docname="eye.svg"
   inkscape:version="1.4.2 (f4327f4, 2025-05-13)"
   xmlns:inkscape="http://www.inkscape.org/namespaces/inkscape"
   xmlns:sodipodi="http://sodipodi.sourceforge.net/DTD/sodipodi-0.dtd"
   xmlns="http://www.w3.org/2000/svg"
   xmlns:svg="http://www.w3.org/2000/svg">
  <defs
     id="defs1" />
  <sodipodi:namedview
     id="namedview1"
     pagecolor="#ffffff"
     bordercolor="#000000"
     borderopacity="0.25"
     inkscape:showpageshadow="2"
     inkscape:pageopacity="0.0"
     inkscape:pagecheckerboard="false"
     inkscape:deskcolor="#d1d1d1"
     inkscape:zoom="12.006084"
     inkscape:cx="24.612521"
     inkscape:cy="9.4535404"
     inkscape:window-width="1920"
     inkscape:window-height="1017"
     inkscape:window-x="-8"
     inkscape:window-y="79"
     inkscape:window-maximized="1"
     inkscape:current-layer="svg1" />
  <path
     d="m 440,-480 q 75,0 127.5,-52.5 Q 620,-585 620,-660 620,-735 567.5,-787.5 515,-840 440,-840 365,-840 312.5,-787.5 260,-735 260,-660 q 0,75 52.5,127.5 Q 365,-480 440,-480 Z m 0,-72 q -45,0 -76.5,-31.5 Q 332,-615 332,-660 q 0,-45 31.5,-76.5 31.5,-31.5 76.5,-31.5 45,0 76.5,31.5 31.5,31.5 31.5,76.5 0,45 -31.5,76.5 Q 485,-552 440,-552 Z m 0,192 Q 294,-360 174,-441.5 54,-523 0,-660 54,-797 174,-878.5 294,-960 440,-960 q 146,0 266,81.5 120,81.5 174,218.5 -54,137 -174,218.5 -120,81.5 -266,81.5 z m 0,-300 z m 0,220 q 113,0 207.5,-59.5 Q 742,-559 792,-660 742,-761 647.5,-820.5 553,-880 440,-880 327,-880 232.5,-820.5 138,-761 88,-660 138,-559 232.5,-499.5 327,-440 440,-440 Z"
     id="path1" />
  <circle
     style="fill:#000000;stroke:#000000;stroke-width:200"
     id="path2"
     cx="448.83435"
     cy="-652.3681"
     r="60.07362" />
</svg>
