<?xml version="1.0"?>
<svg width="205" height="205" xmlns="http://www.w3.org/2000/svg" xmlns:svg="http://www.w3.org/2000/svg">
 <!-- Created with SVG-edit - https://github.com/SVG-Edit/svgedit-->

 <g class="layer">
  <title>Layer 1</title>
  <rect fill="none" height="200" id="svg_2" stroke="#000000" stroke-width="5" width="200" x="2" y="2"/>
  <ellipse cx="178" cy="26" fill="#ff0000" fill-opacity="0" id="svg_3" rx="16" ry="16" stroke="#000000" stroke-width="5"/>
  <rect fill="#000000" height="128" id="svg_1" stroke="#000000" stroke-dasharray="null" stroke-linecap="null" stroke-linejoin="null" stroke-opacity="null" stroke-width="5" transform="matrix(1, 0, 0, 1, 0, 0)" width="128" x="38.5" y="50"/>
  <rect fill="#bfbfbf" height="13" id="svg_4" stroke="#000000" stroke-dasharray="null" stroke-linecap="null" stroke-linejoin="null" stroke-opacity="null" stroke-width="5" transform="matrix(1, 0, 0, 1, 0, 0) matrix(1, 0, 0, 1, 7.62801, 19.5044)" width="13" x="41.23" y="96"/>
  <rect fill="#bfbfbf" height="13" id="svg_10" stroke="#000000" stroke-dasharray="null" stroke-linecap="null" stroke-linejoin="null" stroke-opacity="null" stroke-width="5" transform="matrix(1, 0, 0, 1, 0, 0) matrix(1, 0, 0, 1, 7.62801, 19.5044)" width="13" x="60.09" y="96"/>
  <rect fill="#bfbfbf" height="13" id="svg_11" stroke="#000000" stroke-dasharray="null" stroke-linecap="null" stroke-linejoin="null" stroke-opacity="null" stroke-width="5" transform="matrix(1, 0, 0, 1, 0, 0) matrix(1, 0, 0, 1, 7.62801, 19.5044)" width="13" x="78.95" y="96"/>
  <rect fill="#bfbfbf" height="13" id="svg_12" stroke="#000000" stroke-dasharray="null" stroke-linecap="null" stroke-linejoin="null" stroke-opacity="null" stroke-width="5" transform="matrix(1, 0, 0, 1, 0, 0) matrix(1, 0, 0, 1, 7.62801, 19.5044)" width="13" x="97.8" y="96"/>
  <rect fill="#bfbfbf" height="13" id="svg_13" stroke="#000000" stroke-dasharray="null" stroke-linecap="null" stroke-linejoin="null" stroke-opacity="null" stroke-width="5" transform="matrix(1, 0, 0, 1, 0, 0) matrix(1, 0, 0, 1, 7.62801, 19.5044)" width="13" x="116.66" y="96"/>
  <rect fill="#bfbfbf" height="13" id="svg_14" stroke="#000000" stroke-dasharray="null" stroke-linecap="null" stroke-linejoin="null" stroke-opacity="null" stroke-width="5" transform="matrix(1, 0, 0, 1, 0, 0) matrix(1, 0, 0, 1, 7.62801, 19.5044)" width="13" x="135.52" y="96"/>
  <rect fill="#bfbfbf" height="13" id="svg_17" stroke="#000000" stroke-dasharray="null" stroke-linecap="null" stroke-linejoin="null" stroke-opacity="null" stroke-width="5" transform="matrix(1, 0, 0, 1, 0, 0) matrix(1, 0, 0, 1, 7.62567, 51.5006)" width="13" x="41.23" y="96"/>
  <rect fill="#bfbfbf" height="13" id="svg_18" stroke="#000000" stroke-dasharray="null" stroke-linecap="null" stroke-linejoin="null" stroke-opacity="null" stroke-width="5" transform="matrix(1, 0, 0, 1, 0, 0) matrix(1, 0, 0, 1, 7.62567, 51.5006)" width="13" x="60.09" y="96"/>
  <rect fill="#bfbfbf" height="13" id="svg_19" stroke="#000000" stroke-dasharray="null" stroke-linecap="null" stroke-linejoin="null" stroke-opacity="null" stroke-width="5" transform="matrix(1, 0, 0, 1, 0, 0) matrix(1, 0, 0, 1, 7.62567, 51.5006)" width="13" x="78.95" y="96"/>
  <rect fill="#bfbfbf" height="13" id="svg_20" stroke="#000000" stroke-dasharray="null" stroke-linecap="null" stroke-linejoin="null" stroke-opacity="null" stroke-width="5" transform="matrix(1, 0, 0, 1, 0, 0) matrix(1, 0, 0, 1, 7.62567, 51.5006)" width="13" x="97.8" y="96"/>
  <rect fill="#bfbfbf" height="13" id="svg_21" stroke="#000000" stroke-dasharray="null" stroke-linecap="null" stroke-linejoin="null" stroke-opacity="null" stroke-width="5" transform="matrix(1, 0, 0, 1, 0, 0) matrix(1, 0, 0, 1, 7.62567, 51.5006)" width="13" x="116.66" y="96"/>
  <rect fill="#bfbfbf" height="13" id="svg_22" stroke="#000000" stroke-dasharray="null" stroke-linecap="null" stroke-linejoin="null" stroke-opacity="null" stroke-width="5" transform="matrix(1, 0, 0, 1, 0, 0) matrix(1, 0, 0, 1, 7.62567, 51.5006)" width="13" x="135.52" y="96"/>
  <rect fill="#bfbfbf" height="13" id="svg_24" stroke="#000000" stroke-dasharray="null" stroke-linecap="null" stroke-linejoin="null" stroke-opacity="null" stroke-width="5" transform="matrix(1, 0, 0, 1, 0, 0) matrix(1, 0, 0, 1, 7.6274, 35.5062)" width="13" x="41.23" y="96"/>
  <rect fill="#bfbfbf" height="13" id="svg_25" stroke="#000000" stroke-dasharray="null" stroke-linecap="null" stroke-linejoin="null" stroke-opacity="null" stroke-width="5" transform="matrix(1, 0, 0, 1, 0, 0) matrix(1, 0, 0, 1, 7.6274, 35.5062)" width="13" x="60.09" y="96"/>
  <rect fill="#bfbfbf" height="13" id="svg_26" stroke="#000000" stroke-dasharray="null" stroke-linecap="null" stroke-linejoin="null" stroke-opacity="null" stroke-width="5" transform="matrix(1, 0, 0, 1, 0, 0) matrix(1, 0, 0, 1, 7.6274, 35.5062)" width="13" x="78.95" y="96"/>
  <rect fill="none" height="13" id="svg_27" stroke="#000000" stroke-dasharray="null" stroke-linecap="null" stroke-linejoin="null" stroke-opacity="0" stroke-width="5" transform="matrix(1, 0, 0, 1, 0, 0) matrix(1, 0, 0, 1, 7.6274, 35.5062)" width="13" x="97.8" y="96"/>
  <rect fill="#bfbfbf" height="13" id="svg_28" stroke="#000000" stroke-dasharray="null" stroke-linecap="null" stroke-linejoin="null" stroke-opacity="null" stroke-width="5" transform="matrix(1, 0, 0, 1, 0, 0) matrix(1, 0, 0, 1, 7.6274, 35.5062)" width="13" x="116.66" y="96"/>
  <rect fill="#bfbfbf" height="13" id="svg_29" stroke="#000000" stroke-dasharray="null" stroke-linecap="null" stroke-linejoin="null" stroke-opacity="null" stroke-width="5" transform="matrix(1, 0, 0, 1, 0, 0) matrix(1, 0, 0, 1, 7.6274, 35.5062)" width="13" x="135.52" y="96"/>
  <rect fill="#bfbfbf" height="13" id="svg_31" stroke="#000000" stroke-dasharray="null" stroke-linecap="null" stroke-linejoin="null" stroke-opacity="null" stroke-width="5" transform="matrix(1, 0, 0, 1, 0, 0) matrix(1, 0, 0, 1, 7.62936, 3.49953)" width="13" x="41230407027637256" y="96"/>
  <rect fill="#bfbfbf" height="13" id="svg_32" stroke="#000000" stroke-dasharray="null" stroke-linecap="null" stroke-linejoin="null" stroke-opacity="null" stroke-width="5" transform="matrix(1, 0, 0, 1, 7.62936, 3.49953)" width="13" x="60.09" y="96"/>
  <rect fill="#bfbfbf" height="13" id="svg_33" stroke="#000000" stroke-dasharray="null" stroke-linecap="null" stroke-linejoin="null" stroke-opacity="null" stroke-width="5" transform="matrix(1, 0, 0, 1, 0, 0) matrix(1, 0, 0, 1, 7.62936, 3.49953)" width="13" x="78.95" y="96"/>
  <rect fill="#bfbfbf" height="13" id="svg_34" stroke="#000000" stroke-dasharray="null" stroke-linecap="null" stroke-linejoin="null" stroke-opacity="null" stroke-width="5" transform="matrix(1, 0, 0, 1, 0, 0) matrix(1, 0, 0, 1, 7.62936, 3.49953)" width="13" x="97.8" y="96"/>
  <rect fill="#bfbfbf" height="13" id="svg_35" stroke="#000000" stroke-dasharray="null" stroke-linecap="null" stroke-linejoin="null" stroke-opacity="null" stroke-width="5" transform="matrix(1, 0, 0, 1, 0, 0) matrix(1, 0, 0, 1, 7.62936, 3.49953)" width="13" x="116.66" y="96"/>
  <rect fill="#bfbfbf" height="13" id="svg_36" stroke="#000000" stroke-dasharray="null" stroke-linecap="null" stroke-linejoin="null" stroke-opacity="null" stroke-width="5" transform="matrix(1, 0, 0, 1, 0, 0) matrix(1, 0, 0, 1, 7.62936, 3.49953)" width="13" x="135.52" y="96"/>
  <rect fill="#ffffff" height="13" id="svg_38" stroke="#000000" stroke-dasharray="null" stroke-linecap="null" stroke-linejoin="null" stroke-opacity="null" stroke-width="5" transform="matrix(1, 0, 0, 1, 0, 0)" width="13" x="230407027637256" y="83"/>
  <rect fill="#bfbfbf" height="13" id="svg_39" stroke="#000000" stroke-dasharray="null" stroke-linecap="null" stroke-linejoin="null" stroke-opacity="null" stroke-width="5" transform="matrix(1, 0, 0, 1, 0, 0) matrix(1, 0, 0, 1, 7.62199, -12.4953)" width="13" x="60.09" y="96"/>
  <rect fill="#bfbfbf" height="13" id="svg_40" stroke="#000000" stroke-dasharray="null" stroke-linecap="null" stroke-linejoin="null" stroke-opacity="null" stroke-width="5" transform="matrix(1, 0, 0, 1, 0, 0) matrix(1, 0, 0, 1, 7.62199, -12.4953)" width="13" x="78.95" y="96"/>
  <rect fill="#bfbfbf" height="13" id="svg_41" stroke="#000000" stroke-dasharray="null" stroke-linecap="null" stroke-linejoin="null" stroke-opacity="null" stroke-width="5" transform="matrix(1, 0, 0, 1, 0, 0) matrix(1, 0, 0, 1, 7.62199, -12.4953)" width="13" x="97.8" y="96"/>
  <rect fill="#bfbfbf" height="13" id="svg_42" stroke="#000000" stroke-dasharray="null" stroke-linecap="null" stroke-linejoin="null" stroke-opacity="null" stroke-width="5" transform="matrix(1, 0, 0, 1, 0, 0) matrix(1, 0, 0, 1, 7.62199, -12.4953)" width="13" x="116.66" y="96"/>
  <rect fill="#bfbfbf" height="13" id="svg_43" stroke="#000000" stroke-dasharray="null" stroke-linecap="null" stroke-linejoin="null" stroke-opacity="null" stroke-width="5" transform="matrix(1, 0, 0, 1, 0, 0) matrix(1, 0, 0, 1, 7.62199, -12.4953)" width="13" x="135.52" y="96"/>
  <rect fill="#bfbfbf" height="13" id="svg_45" stroke="#000000" stroke-dasharray="null" stroke-linecap="null" stroke-linejoin="null" stroke-opacity="null" stroke-width="5" transform="matrix(1, 0, 0, 1, 0, 0) matrix(1, 0, 0, 1, 7.62591, -28.4963)" width="13" x="41.23" y="96"/>
  <rect fill="#bfbfbf" height="13" id="svg_46" stroke="#000000" stroke-dasharray="null" stroke-linecap="null" stroke-linejoin="null" stroke-opacity="null" stroke-width="5" transform="matrix(1, 0, 0, 1, 0, 0) matrix(1, 0, 0, 1, 7.62591, -28.4963)" width="13" x="60" y="96"/>
  <rect fill="#bfbfbf" height="13" id="svg_47" stroke="#000000" stroke-dasharray="null" stroke-linecap="null" stroke-linejoin="null" stroke-opacity="null" stroke-width="5" transform="matrix(1, 0, 0, 1, 0, 0) matrix(1, 0, 0, 1, 7.62591, -28.4963)" width="13" x="78.95" y="96"/>
  <rect fill="#bfbfbf" height="13" id="svg_48" stroke="#000000" stroke-dasharray="null" stroke-linecap="null" stroke-linejoin="null" stroke-opacity="null" stroke-width="5" transform="matrix(1, 0, 0, 1, 0, 0) matrix(1, 0, 0, 1, 7.62591, -28.4963)" width="13" x="97.8" y="96"/>
  <rect fill="#bfbfbf" height="13" id="svg_49" stroke="#000000" stroke-dasharray="null" stroke-linecap="null" stroke-linejoin="null" stroke-opacity="null" stroke-width="5" transform="matrix(1, 0, 0, 1, 0, 0) matrix(1, 0, 0, 1, 7.62591, -28.4963)" width="13" x="116.66" y="96"/>
  <rect fill="#bfbfbf" height="13" id="svg_50" stroke="#000000" stroke-dasharray="null" stroke-linecap="null" stroke-linejoin="null" stroke-opacity="null" stroke-width="5" transform="matrix(1, 0, 0, 1, 0, 0) matrix(1, 0, 0, 1, 7.62591, -28.4963)" width="13" x="135.52" y="96"/>
  <polygon cx="76.7" cy="18.83" edge="16.46" fill="#000000" id="svg_52" orient="x" points="108.13565218448639,37.979129791259766 96.86358797550201,56.63233184814453 96.86358797550201,19.325908660888672 108.13565218448639,37.979129791259766" shape="regularPoly" sides="3" stroke="#000000" stroke-width="5" transform="rotate(-90, 102.5, 37.9791)"/>
  <polygon cx="76.7" cy="18.83" edge="16.46" fill="#000000" id="svg_53" orient="x" points="31.699481964111328,113.99998235702515 20.427419662475586,132.6531958580017 20.427419662475586,95.34676122665405 31.699481964111328,113.99998235702515" shape="regularPoly" sides="3" stroke="#000000" stroke-width="5" transform="rotate(-180, 26.0634, 114)"/>
  <polygon cx="76.7" cy="18.83" edge="16.46" fill="#000000" id="svg_54" orient="x" points="184.14511108398438,113.99370622634888 172.87306213378906,132.64691972732544 172.87306213378906,95.34048509597778 184.14511108398438,113.99370622634888" shape="regularPoly" sides="3" stroke="#000000" stroke-width="5"/>
  <polygon cx="76.7" cy="18.83" edge="16.46" fill="#000000" id="svg_55" orient="x" points="102.49630737304688,196.04461669921875 83.84310913085938,184.7725830078125 121.1495361328125,184.7725830078125 102.49630737304688,196.04461669921875" shape="regularPoly" sides="3" stroke="#000000" stroke-width="5"/>
  <polygon cx="69" cy="135" edge="18.4" fill="#ff0000" id="svg_56" orient="x" points="119.4156494140625,140.39810180664062 108.35021209716797,146.78672790527344 108.35021209716797,134.0094757080078 119.4156494140625,140.39810180664062" shape="regularPoly" sides="3" stroke="#000000" transform="rotate(44, 113.883, 140.398)"/>
  <rect fill="#ffffff" height="13" id="svg_59" stroke="#000000" stroke-dasharray="null" stroke-linecap="null" stroke-linejoin="null" stroke-opacity="null" stroke-width="5" transform="matrix(1, 0, 0, 1, 0, 0) matrix(0.989583, 0, 0, 0.9375, -46.5959, -81.5942)" width="13" x="96" y="177"/>
  <rect fill="#bfbfbf" height="13" id="svg_58" stroke="#000000" stroke-dasharray="null" stroke-linecap="null" stroke-linejoin="null" stroke-opacity="null" stroke-width="5" transform="matrix(1, 0, 0, 1, 0, 0) matrix(1, 0, 0, 1, 7.62936, 3.49953)" width="13" x="41" y="96"/>
  <ellipse cx="55" cy="90" fill="none" id="svg_57" rx="8" ry="8" stroke="#ffffff" stroke-dasharray="null" stroke-linecap="null" stroke-linejoin="null"/>
  <ellipse cx="150" cy="106" fill="none" id="svg_60" rx="8" ry="8" stroke="#ffffff" stroke-dasharray="null" stroke-linecap="null" stroke-linejoin="null" transform="matrix(1, 0, 0, 1, 0, 0)"/>
 </g>
</svg>